<svg width="179" height="149" viewBox="0 0 179 149" fill="none" xmlns="http://www.w3.org/2000/svg">
<g clip-path="url(#clip0_459_1252)">
<g filter="url(#filter0_d_459_1252)">
<rect x="5" width="168" height="145" rx="5" fill="white"/>
<rect x="5.5" y="0.5" width="167" height="144" rx="4.5" stroke="#D9D9D9"/>
</g>
<path d="M45.0741 121.488C44.8133 121.488 44.5819 121.54 44.3797 121.642C44.1805 121.742 44.0121 121.887 43.8744 122.077C43.7396 122.268 43.6371 122.498 43.5667 122.767C43.4964 123.037 43.4613 123.34 43.4613 123.677C43.4613 124.131 43.5169 124.519 43.6283 124.841C43.7425 125.161 43.9183 125.405 44.1556 125.575C44.3929 125.742 44.6991 125.826 45.0741 125.826C45.3348 125.826 45.5956 125.796 45.8563 125.738C46.12 125.679 46.4056 125.596 46.7132 125.487V126.63C46.4291 126.747 46.1493 126.831 45.8739 126.88C45.5985 126.933 45.2894 126.959 44.9466 126.959C44.2845 126.959 43.7396 126.823 43.3119 126.551C42.8871 126.275 42.5721 125.892 42.367 125.399C42.162 124.904 42.0594 124.327 42.0594 123.668C42.0594 123.182 42.1253 122.736 42.2572 122.332C42.389 121.928 42.5824 121.578 42.8373 121.282C43.0921 120.986 43.4071 120.757 43.7821 120.596C44.1571 120.435 44.5877 120.354 45.0741 120.354C45.3934 120.354 45.7127 120.396 46.0321 120.478C46.3543 120.557 46.662 120.667 46.9549 120.807L46.5155 121.915C46.2752 121.8 46.0335 121.701 45.7904 121.616C45.5472 121.531 45.3084 121.488 45.0741 121.488ZM53.9159 123.65C53.9159 124.146 53.8543 124.597 53.7313 125.004C53.6083 125.408 53.4208 125.757 53.1688 126.05C52.9198 126.343 52.6034 126.568 52.2196 126.727C51.8358 126.882 51.3817 126.959 50.8573 126.959C50.3329 126.959 49.8788 126.882 49.495 126.727C49.1112 126.568 48.7933 126.343 48.5414 126.05C48.2923 125.757 48.1063 125.407 47.9833 125C47.8602 124.592 47.7987 124.14 47.7987 123.642C47.7987 122.977 47.9071 122.398 48.1239 121.906C48.3436 121.411 48.6805 121.027 49.1346 120.754C49.5887 120.482 50.1659 120.346 50.8661 120.346C51.5633 120.346 52.1361 120.482 52.5843 120.754C53.0355 121.027 53.3695 121.411 53.5863 121.906C53.806 122.401 53.9159 122.982 53.9159 123.65ZM49.2269 123.65C49.2269 124.099 49.2826 124.485 49.3939 124.811C49.5082 125.133 49.6854 125.382 49.9256 125.558C50.1659 125.73 50.4764 125.817 50.8573 125.817C51.244 125.817 51.5575 125.73 51.7977 125.558C52.0379 125.382 52.2123 125.133 52.3207 124.811C52.432 124.485 52.4876 124.099 52.4876 123.65C52.4876 122.977 52.3617 122.446 52.1097 122.06C51.8578 121.673 51.4432 121.479 50.8661 121.479C50.4823 121.479 50.1688 121.567 49.9256 121.743C49.6854 121.916 49.5082 122.165 49.3939 122.49C49.2826 122.812 49.2269 123.199 49.2269 123.65ZM60.9471 126.872H59.2157L56.4208 122.011H56.3812C56.3929 122.213 56.4032 122.417 56.412 122.622C56.4208 122.827 56.4295 123.032 56.4383 123.237C56.4471 123.439 56.4559 123.643 56.4647 123.848V126.872H55.2474V120.447H56.9657L59.7562 125.259H59.787C59.7811 125.06 59.7738 124.862 59.765 124.666C59.7562 124.469 59.7474 124.273 59.7386 124.077C59.7328 123.88 59.7269 123.684 59.721 123.488V120.447H60.9471V126.872ZM65.0472 126.872H63.6849V121.581H61.9403V120.447H66.7918V121.581H65.0472V126.872ZM71.7137 126.872L71.2479 125.342H68.9056L68.4398 126.872H66.972L69.2396 120.42H70.9051L73.1815 126.872H71.7137ZM70.9227 124.2L70.4569 122.706C70.4276 122.606 70.388 122.479 70.3382 122.323C70.2914 122.165 70.243 122.005 70.1932 121.844C70.1463 121.68 70.1083 121.538 70.079 121.418C70.0497 121.538 70.0086 121.688 69.9559 121.866C69.9061 122.042 69.8578 122.209 69.8109 122.367C69.764 122.525 69.7303 122.638 69.7098 122.706L69.2484 124.2H70.9227ZM76.473 126.872H75.1107V121.581H73.3661V120.447H78.2176V121.581H76.473V126.872ZM83.1395 126.872L82.6737 125.342H80.3314L79.8656 126.872H78.3978L80.6654 120.42H82.3309L84.6073 126.872H83.1395ZM82.3485 124.2L81.8827 122.706C81.8534 122.606 81.8138 122.479 81.764 122.323C81.7171 122.165 81.6688 122.005 81.619 121.844C81.5721 121.68 81.534 121.538 81.5047 121.418C81.4754 121.538 81.4344 121.688 81.3817 121.866C81.3319 122.042 81.2835 122.209 81.2367 122.367C81.1898 122.525 81.1561 122.638 81.1356 122.706L80.6742 124.2H82.3485ZM87.2923 120.447C87.8753 120.447 88.3558 120.517 88.7337 120.658C89.1146 120.798 89.3973 121.011 89.5819 121.295C89.7665 121.579 89.8587 121.938 89.8587 122.372C89.8587 122.665 89.8031 122.921 89.6917 123.141C89.5804 123.36 89.4339 123.546 89.2523 123.699C89.0707 123.851 88.8744 123.976 88.6634 124.072L90.5531 126.872H89.0414L87.5077 124.406H86.7826V126.872H85.4203V120.447H87.2923ZM87.1957 121.563H86.7826V123.299H87.222C87.6732 123.299 87.9955 123.224 88.1888 123.075C88.3851 122.922 88.4833 122.7 88.4833 122.407C88.4833 122.102 88.3778 121.885 88.1668 121.756C87.9588 121.627 87.6351 121.563 87.1957 121.563ZM97.6327 126.872L97.1668 125.342H94.8246L94.3587 126.872H92.891L95.1585 120.42H96.8241L99.1004 126.872H97.6327ZM96.8417 124.2L96.3758 122.706C96.3465 122.606 96.307 122.479 96.2572 122.323C96.2103 122.165 96.162 122.005 96.1122 121.844C96.0653 121.68 96.0272 121.538 95.9979 121.418C95.9686 121.538 95.9276 121.688 95.8749 121.866C95.8251 122.042 95.7767 122.209 95.7298 122.367C95.683 122.525 95.6493 122.638 95.6288 122.706L95.1673 124.2H96.8417ZM105.613 126.872H103.882L101.087 122.011H101.047C101.059 122.213 101.069 122.417 101.078 122.622C101.087 122.827 101.096 123.032 101.104 123.237C101.113 123.439 101.122 123.643 101.131 123.848V126.872H99.9134V120.447H101.632L104.422 125.259H104.453C104.447 125.06 104.44 124.862 104.431 124.666C104.422 124.469 104.413 124.273 104.405 124.077C104.399 123.88 104.393 123.684 104.387 123.488V120.447H105.613V126.872ZM111.168 126.872L110.702 125.342H108.36L107.894 126.872H106.426L108.694 120.42H110.359L112.636 126.872H111.168ZM110.377 124.2L109.911 122.706C109.882 122.606 109.842 122.479 109.792 122.323C109.745 122.165 109.697 122.005 109.647 121.844C109.6 121.68 109.562 121.538 109.533 121.418C109.504 121.538 109.463 121.688 109.41 121.866C109.36 122.042 109.312 122.209 109.265 122.367C109.218 122.525 109.184 122.638 109.164 122.706L108.702 124.2H110.377ZM113.449 126.872V120.447H114.811V125.747H117.417V126.872H113.449ZM118.537 126.872V120.447H119.9V126.872H118.537ZM125.309 125.087C125.309 125.468 125.217 125.799 125.033 126.081C124.848 126.362 124.578 126.579 124.224 126.731C123.872 126.883 123.445 126.959 122.941 126.959C122.718 126.959 122.5 126.945 122.286 126.916C122.075 126.886 121.871 126.844 121.675 126.788C121.482 126.729 121.297 126.658 121.121 126.573V125.307C121.426 125.442 121.743 125.563 122.071 125.672C122.399 125.78 122.724 125.834 123.046 125.834C123.269 125.834 123.448 125.805 123.582 125.747C123.72 125.688 123.82 125.607 123.881 125.505C123.943 125.402 123.973 125.285 123.973 125.153C123.973 124.992 123.919 124.854 123.811 124.74C123.702 124.626 123.553 124.519 123.363 124.419C123.175 124.32 122.963 124.213 122.725 124.099C122.576 124.028 122.413 123.943 122.238 123.844C122.062 123.741 121.895 123.617 121.737 123.47C121.578 123.324 121.448 123.146 121.346 122.938C121.246 122.728 121.196 122.476 121.196 122.183C121.196 121.799 121.284 121.471 121.46 121.198C121.636 120.926 121.886 120.718 122.211 120.574C122.539 120.428 122.926 120.354 123.371 120.354C123.705 120.354 124.023 120.394 124.325 120.473C124.63 120.549 124.948 120.661 125.279 120.807L124.839 121.866C124.543 121.746 124.278 121.654 124.044 121.589C123.809 121.522 123.571 121.488 123.327 121.488C123.158 121.488 123.013 121.516 122.892 121.572C122.772 121.625 122.681 121.701 122.62 121.8C122.558 121.897 122.528 122.01 122.528 122.139C122.528 122.291 122.572 122.42 122.66 122.525C122.75 122.628 122.885 122.728 123.064 122.824C123.245 122.921 123.471 123.034 123.741 123.163C124.069 123.318 124.348 123.48 124.58 123.65C124.814 123.817 124.994 124.015 125.12 124.244C125.246 124.469 125.309 124.75 125.309 125.087ZM128.952 126.872H127.59V121.581H125.846V120.447H130.697V121.581H128.952V126.872ZM135.619 126.872L135.153 125.342H132.811L132.345 126.872H130.877L133.145 120.42H134.81L137.087 126.872H135.619ZM134.828 124.2L134.362 122.706C134.333 122.606 134.293 122.479 134.244 122.323C134.197 122.165 134.148 122.005 134.098 121.844C134.052 121.68 134.014 121.538 133.984 121.418C133.955 121.538 133.914 121.688 133.861 121.866C133.811 122.042 133.763 122.209 133.716 122.367C133.669 122.525 133.636 122.638 133.615 122.706L133.154 124.2H134.828Z" fill="black"/>
<path d="M105.8 50H72.2C69.89 50 68 52.025 68 54.5V95L76.4 86H105.8C108.11 86 110 83.975 110 81.5V54.5C110 52.025 108.11 50 105.8 50ZM105.8 81.5H76.4L72.2 86V54.5H105.8V81.5Z" fill="black"/>
</g>
<defs>
<filter id="filter0_d_459_1252" x="1" y="0" width="176" height="153" filterUnits="userSpaceOnUse" color-interpolation-filters="sRGB">
<feFlood flood-opacity="0" result="BackgroundImageFix"/>
<feColorMatrix in="SourceAlpha" type="matrix" values="0 0 0 0 0 0 0 0 0 0 0 0 0 0 0 0 0 0 127 0" result="hardAlpha"/>
<feOffset dy="4"/>
<feGaussianBlur stdDeviation="2"/>
<feComposite in2="hardAlpha" operator="out"/>
<feColorMatrix type="matrix" values="0 0 0 0 0 0 0 0 0 0 0 0 0 0 0 0 0 0 0.05 0"/>
<feBlend mode="normal" in2="BackgroundImageFix" result="effect1_dropShadow_459_1252"/>
<feBlend mode="normal" in="SourceGraphic" in2="effect1_dropShadow_459_1252" result="shape"/>
</filter>
<clipPath id="clip0_459_1252">
<rect width="179" height="149" fill="white"/>
</clipPath>
</defs>
</svg>
