<svg width="179" height="149" viewBox="0 0 179 149" fill="none" xmlns="http://www.w3.org/2000/svg">
<g clip-path="url(#clip0_461_1276)">
<g filter="url(#filter0_d_461_1276)">
<rect x="5" width="168" height="145" rx="5" fill="white"/>
<rect x="5.5" y="0.5" width="167" height="144" rx="4.5" stroke="#D9D9D9"/>
</g>
<path d="M56.5702 123.598C56.5702 124.321 56.431 124.926 56.1527 125.413C55.8773 125.896 55.4774 126.261 54.953 126.507C54.4286 126.75 53.7972 126.872 53.0589 126.872H51.2396V120.447H53.2567C53.9305 120.447 54.515 120.567 55.0101 120.807C55.5052 121.044 55.889 121.397 56.1615 121.866C56.4339 122.332 56.5702 122.909 56.5702 123.598ZM55.1551 123.633C55.1551 123.158 55.0848 122.769 54.9442 122.464C54.8065 122.156 54.6014 121.929 54.329 121.783C54.0594 121.636 53.7254 121.563 53.327 121.563H52.6019V125.747H53.1864C53.8514 125.747 54.3451 125.569 54.6673 125.215C54.9925 124.86 55.1551 124.333 55.1551 123.633ZM63.7333 123.65C63.7333 124.146 63.6717 124.597 63.5487 125.004C63.4256 125.408 63.2381 125.757 62.9862 126.05C62.7372 126.343 62.4208 126.568 62.037 126.727C61.6532 126.882 61.1991 126.959 60.6747 126.959C60.1502 126.959 59.6961 126.882 59.3124 126.727C58.9286 126.568 58.6107 126.343 58.3587 126.05C58.1097 125.757 57.9237 125.407 57.8006 125C57.6776 124.592 57.6161 124.14 57.6161 123.642C57.6161 122.977 57.7245 122.398 57.9413 121.906C58.161 121.411 58.4979 121.027 58.952 120.754C59.4061 120.482 59.9833 120.346 60.6834 120.346C61.3807 120.346 61.9535 120.482 62.4017 120.754C62.8529 121.027 63.1869 121.411 63.4037 121.906C63.6234 122.401 63.7333 122.982 63.7333 123.65ZM59.0443 123.65C59.0443 124.099 59.1 124.485 59.2113 124.811C59.3255 125.133 59.5028 125.382 59.743 125.558C59.9833 125.73 60.2938 125.817 60.6747 125.817C61.0614 125.817 61.3749 125.73 61.6151 125.558C61.8553 125.382 62.0296 125.133 62.138 124.811C62.2494 124.485 62.305 124.099 62.305 123.65C62.305 122.977 62.1791 122.446 61.9271 122.06C61.6751 121.673 61.2606 121.479 60.6834 121.479C60.2997 121.479 59.9862 121.567 59.743 121.743C59.5028 121.916 59.3255 122.165 59.2113 122.49C59.1 122.812 59.0443 123.199 59.0443 123.65ZM67.7938 121.488C67.5331 121.488 67.3016 121.54 67.0995 121.642C66.9002 121.742 66.7318 121.887 66.5941 122.077C66.4593 122.268 66.3568 122.498 66.2865 122.767C66.2162 123.037 66.181 123.34 66.181 123.677C66.181 124.131 66.2367 124.519 66.348 124.841C66.4623 125.161 66.638 125.405 66.8753 125.575C67.1126 125.742 67.4188 125.826 67.7938 125.826C68.0545 125.826 68.3153 125.796 68.576 125.738C68.8397 125.679 69.1253 125.596 69.433 125.487V126.63C69.1488 126.747 68.869 126.831 68.5936 126.88C68.3182 126.933 68.0091 126.959 67.6664 126.959C67.0042 126.959 66.4593 126.823 66.0316 126.551C65.6068 126.275 65.2918 125.892 65.0868 125.399C64.8817 124.904 64.7792 124.327 64.7792 123.668C64.7792 123.182 64.8451 122.736 64.9769 122.332C65.1087 121.928 65.3021 121.578 65.557 121.282C65.8119 120.986 66.1268 120.757 66.5018 120.596C66.8768 120.435 67.3075 120.354 67.7938 120.354C68.1131 120.354 68.4325 120.396 68.7518 120.478C69.0741 120.557 69.3817 120.667 69.6747 120.807L69.2352 121.915C68.995 121.8 68.7533 121.701 68.5101 121.616C68.2669 121.531 68.0282 121.488 67.7938 121.488ZM76.0335 120.447V124.604C76.0335 125.046 75.9354 125.446 75.7391 125.804C75.5458 126.158 75.2513 126.439 74.8558 126.647C74.4632 126.855 73.9681 126.959 73.3705 126.959C72.5209 126.959 71.8734 126.743 71.4281 126.309C70.9828 125.875 70.7601 125.301 70.7601 124.586V120.447H72.118V124.38C72.118 124.91 72.2264 125.282 72.4432 125.496C72.66 125.71 72.9808 125.817 73.4056 125.817C73.7044 125.817 73.9461 125.766 74.1307 125.663C74.3182 125.561 74.4559 125.402 74.5438 125.188C74.6317 124.975 74.6756 124.702 74.6756 124.371V120.447H76.0335ZM80.327 126.872L78.7801 121.831H78.7406C78.7464 121.951 78.7552 122.133 78.7669 122.376C78.7816 122.616 78.7948 122.873 78.8065 123.145C78.8182 123.417 78.8241 123.664 78.8241 123.883V126.872H77.6068V120.447H79.4613L80.9818 125.36H81.0082L82.6209 120.447H84.4754V126.872H83.2054V123.831C83.2054 123.628 83.2084 123.396 83.2142 123.132C83.223 122.868 83.2333 122.618 83.245 122.38C83.2567 122.14 83.2655 121.96 83.2713 121.84H83.2318L81.5751 126.872H80.327ZM89.7972 126.872H86.097V120.447H89.7972V121.563H87.4593V122.974H89.6346V124.09H87.4593V125.747H89.7972V126.872ZM96.8417 126.872H95.1102L92.3153 122.011H92.2757C92.2875 122.213 92.2977 122.417 92.3065 122.622C92.3153 122.827 92.3241 123.032 92.3329 123.237C92.3417 123.439 92.3504 123.643 92.3592 123.848V126.872H91.1419V120.447H92.8602L95.6507 125.259H95.6815C95.6756 125.06 95.6683 124.862 95.6595 124.666C95.6507 124.469 95.6419 124.273 95.6332 124.077C95.6273 123.88 95.6214 123.684 95.6156 123.488V120.447H96.8417V126.872ZM100.942 126.872H99.5794V121.581H97.8348V120.447H102.686V121.581H100.942V126.872ZM107.608 126.872L107.142 125.342H104.8L104.334 126.872H102.867L105.134 120.42H106.8L109.076 126.872H107.608ZM106.817 124.2L106.351 122.706C106.322 122.606 106.283 122.479 106.233 122.323C106.186 122.165 106.138 122.005 106.088 121.844C106.041 121.68 106.003 121.538 105.973 121.418C105.944 121.538 105.903 121.688 105.85 121.866C105.801 122.042 105.752 122.209 105.705 122.367C105.659 122.525 105.625 122.638 105.604 122.706L105.143 124.2H106.817ZM112.618 121.488C112.357 121.488 112.126 121.54 111.924 121.642C111.724 121.742 111.556 121.887 111.418 122.077C111.284 122.268 111.181 122.498 111.111 122.767C111.04 123.037 111.005 123.34 111.005 123.677C111.005 124.131 111.061 124.519 111.172 124.841C111.286 125.161 111.462 125.405 111.7 125.575C111.937 125.742 112.243 125.826 112.618 125.826C112.879 125.826 113.14 125.796 113.4 125.738C113.664 125.679 113.95 125.596 114.257 125.487V126.63C113.973 126.747 113.693 126.831 113.418 126.88C113.142 126.933 112.833 126.959 112.491 126.959C111.828 126.959 111.284 126.823 110.856 126.551C110.431 126.275 110.116 125.892 109.911 125.399C109.706 124.904 109.603 124.327 109.603 123.668C109.603 123.182 109.669 122.736 109.801 122.332C109.933 121.928 110.126 121.578 110.381 121.282C110.636 120.986 110.951 120.757 111.326 120.596C111.701 120.435 112.132 120.354 112.618 120.354C112.937 120.354 113.257 120.396 113.576 120.478C113.898 120.557 114.206 120.667 114.499 120.807L114.059 121.915C113.819 121.8 113.577 121.701 113.334 121.616C113.091 121.531 112.852 121.488 112.618 121.488ZM113.457 127.97C113.457 128.307 113.359 128.568 113.163 128.752C112.967 128.94 112.612 129.034 112.099 129.034C111.968 129.034 111.849 129.025 111.744 129.007C111.638 128.99 111.543 128.968 111.458 128.941V128.203C111.543 128.224 111.647 128.244 111.77 128.265C111.893 128.285 111.998 128.295 112.086 128.295C112.171 128.295 112.244 128.275 112.306 128.234C112.37 128.196 112.403 128.125 112.403 128.023C112.403 127.915 112.348 127.818 112.24 127.733C112.132 127.648 111.943 127.586 111.673 127.548L112.016 126.872H112.864L112.745 127.14C112.866 127.178 112.98 127.233 113.088 127.307C113.197 127.383 113.285 127.475 113.352 127.583C113.422 127.695 113.457 127.824 113.457 127.97ZM119.561 126.872L119.096 125.342H116.753L116.287 126.872H114.82L117.087 120.42H118.753L121.029 126.872H119.561ZM118.77 124.2L118.305 122.706C118.275 122.606 118.236 122.479 118.186 122.323C118.139 122.165 118.091 122.005 118.041 121.844C117.994 121.68 117.956 121.538 117.927 121.418C117.897 121.538 117.856 121.688 117.804 121.866C117.754 122.042 117.705 122.209 117.659 122.367C117.612 122.525 117.578 122.638 117.557 122.706L117.096 124.2H118.77ZM116.098 119.915C116.116 119.681 116.159 119.479 116.226 119.309C116.293 119.136 116.381 118.995 116.49 118.887C116.598 118.775 116.72 118.693 116.854 118.641C116.992 118.585 117.139 118.557 117.294 118.557C117.414 118.557 117.531 118.581 117.645 118.627C117.763 118.671 117.877 118.724 117.988 118.786C118.102 118.847 118.214 118.901 118.322 118.948C118.433 118.992 118.542 119.014 118.647 119.014C118.735 119.014 118.82 118.976 118.902 118.9C118.987 118.821 119.049 118.704 119.087 118.548H119.742C119.706 119.011 119.575 119.354 119.346 119.577C119.118 119.796 118.851 119.906 118.546 119.906C118.426 119.906 118.307 119.883 118.19 119.836C118.076 119.789 117.962 119.736 117.848 119.678C117.736 119.616 117.626 119.562 117.518 119.515C117.41 119.468 117.303 119.445 117.197 119.445C117.106 119.445 117.018 119.484 116.933 119.563C116.851 119.64 116.791 119.757 116.753 119.915H116.098ZM127.674 123.65C127.674 124.146 127.612 124.597 127.489 125.004C127.366 125.408 127.179 125.757 126.927 126.05C126.678 126.343 126.361 126.568 125.977 126.727C125.594 126.882 125.14 126.959 124.615 126.959C124.091 126.959 123.637 126.882 123.253 126.727C122.869 126.568 122.551 126.343 122.299 126.05C122.05 125.757 121.864 125.407 121.741 125C121.618 124.592 121.556 124.14 121.556 123.642C121.556 122.977 121.665 122.398 121.882 121.906C122.101 121.411 122.438 121.027 122.892 120.754C123.347 120.482 123.924 120.346 124.624 120.346C125.321 120.346 125.894 120.482 126.342 120.754C126.793 121.027 127.127 121.411 127.344 121.906C127.564 122.401 127.674 122.982 127.674 123.65ZM122.985 123.65C122.985 124.099 123.04 124.485 123.152 124.811C123.266 125.133 123.443 125.382 123.683 125.558C123.924 125.73 124.234 125.817 124.615 125.817C125.002 125.817 125.315 125.73 125.556 125.558C125.796 125.382 125.97 125.133 126.078 124.811C126.19 124.485 126.245 124.099 126.245 123.65C126.245 122.977 126.119 122.446 125.868 122.06C125.616 121.673 125.201 121.479 124.624 121.479C124.24 121.479 123.927 121.567 123.683 121.743C123.443 121.916 123.266 122.165 123.152 122.49C123.04 122.812 122.985 123.199 122.985 123.65Z" fill="black"/>
<path d="M94.8222 55L105.556 67.075V90H74.4444V55H94.8222ZM94.8222 50H74.4444C72 50 70 52.25 70 55V90C70 92.75 72 95 74.4444 95H105.556C108 95 110 92.75 110 90V67.075C110 65.75 109.533 64.475 108.689 63.55L97.9556 51.475C97.1333 50.525 96 50 94.8222 50ZM78.8889 80H101.111V85H78.8889V80ZM78.8889 70H101.111V75H78.8889V70ZM78.8889 60H94.4444V65H78.8889V60Z" fill="black"/>
</g>
<defs>
<filter id="filter0_d_461_1276" x="1" y="0" width="176" height="153" filterUnits="userSpaceOnUse" color-interpolation-filters="sRGB">
<feFlood flood-opacity="0" result="BackgroundImageFix"/>
<feColorMatrix in="SourceAlpha" type="matrix" values="0 0 0 0 0 0 0 0 0 0 0 0 0 0 0 0 0 0 127 0" result="hardAlpha"/>
<feOffset dy="4"/>
<feGaussianBlur stdDeviation="2"/>
<feComposite in2="hardAlpha" operator="out"/>
<feColorMatrix type="matrix" values="0 0 0 0 0 0 0 0 0 0 0 0 0 0 0 0 0 0 0.05 0"/>
<feBlend mode="normal" in2="BackgroundImageFix" result="effect1_dropShadow_461_1276"/>
<feBlend mode="normal" in="SourceGraphic" in2="effect1_dropShadow_461_1276" result="shape"/>
</filter>
<clipPath id="clip0_461_1276">
<rect width="179" height="149" fill="white"/>
</clipPath>
</defs>
</svg>
