<svg width="441" height="74" viewBox="0 0 441 74" fill="none" xmlns="http://www.w3.org/2000/svg">
<path d="M195.68 62.7492C195.68 66.0064 193.883 68.2301 190.696 68.2301C187.524 68.2301 185.68 66.0064 185.68 62.7492V46.7761C185.68 46.4159 185.384 46.134 185.04 46.134H180.899C180.54 46.134 180.259 46.4316 180.259 46.7761V62.436C180.259 69.0914 184.352 73.1943 190.711 73.1943C197.102 73.1943 201.164 69.0914 201.164 62.436V46.7761C201.164 46.4159 200.867 46.134 200.523 46.134H196.336C195.977 46.134 195.696 46.4316 195.696 46.7761V62.7492H195.68Z" fill="black"/>
<path d="M204.492 50.6441H209.429V72.0041C209.429 72.3643 209.726 72.6462 210.07 72.6462H214.257C214.617 72.6462 214.898 72.3487 214.898 72.0041V50.6441H219.835C220.195 50.6441 220.476 50.3465 220.476 50.002V46.7761C220.476 46.4159 220.179 46.134 219.835 46.134H204.492C204.133 46.134 203.852 46.4316 203.852 46.7761V50.002C203.852 50.3622 204.148 50.6441 204.492 50.6441Z" fill="black"/>
<path d="M235.553 45.6331C227.428 45.6331 221.538 51.5368 221.538 59.3668C221.538 67.228 227.444 73.2101 235.553 73.2101C243.709 73.2101 249.568 67.228 249.568 59.3668C249.568 51.5368 243.709 45.6331 235.553 45.6331ZM235.553 68.0267C230.569 68.0267 227.085 64.3466 227.085 59.4294C227.085 54.4339 230.585 50.7538 235.553 50.7538C240.537 50.7538 243.99 54.4339 243.99 59.4294C243.99 64.3466 240.522 68.0267 235.553 68.0267Z" fill="black"/>
<path d="M267.224 59.1632V61.8567C267.224 62.2169 267.52 62.4987 267.864 62.4987H274.676C273.551 65.9283 270.473 68.3086 266.411 68.3086C261.318 68.3086 257.833 64.4875 257.833 59.4294C257.833 54.293 261.286 50.5816 266.239 50.5816C269.614 50.5816 272.348 52.4608 273.567 55.076C273.676 55.2952 273.895 55.4361 274.145 55.4361H278.661C279.098 55.4361 279.426 54.9977 279.27 54.5748C277.301 49.0312 272.145 45.6331 266.13 45.6331C258.083 45.6331 252.287 51.5838 252.287 59.3981C252.287 67.2124 258.146 73.1944 266.302 73.1944C273.926 73.1944 279.973 67.322 279.973 59.68C279.973 59.586 279.973 59.3511 279.957 59.1319C279.942 58.7874 279.661 58.5211 279.317 58.5211H267.864C267.505 58.5055 267.224 58.803 267.224 59.1632Z" fill="black"/>
<path d="M288.629 46.1184H284.442C284.083 46.1184 283.801 46.4159 283.801 46.7605V72.6619H295.16C295.519 72.6619 295.801 72.3643 295.801 72.0198V68.7939C295.801 68.4337 295.504 68.1518 295.16 68.1518H289.27V46.7761C289.27 46.4159 288.989 46.1184 288.629 46.1184Z" fill="black"/>
<path d="M339.158 56.0937H336.752C334.627 56.0937 333.611 54.8879 333.611 53.4785C333.611 51.9282 334.642 50.7224 336.752 50.7224H346.376C346.735 50.7224 347.017 50.4248 347.017 50.0803V46.7761C347.017 46.4159 346.72 46.134 346.376 46.134H335.798C331.033 46.134 327.814 49.0781 327.814 53.3845C327.814 57.6284 331.033 60.5411 335.658 60.5411H338.205C341.767 60.5411 342.798 62.342 342.798 64.2212C342.798 66.21 341.454 68.0735 338.173 68.0735H328.58C328.221 68.0735 327.939 68.371 327.939 68.7156V72.0198C327.939 72.38 328.236 72.6618 328.58 72.6618H339.064C345.392 72.6618 348.454 68.8408 348.454 64.2682C348.438 59.7894 345.407 56.0937 339.158 56.0937Z" fill="black"/>
<path d="M361.704 56.0937H359.297C357.173 56.0937 356.157 54.8879 356.157 53.4785C356.157 51.9282 357.188 50.7224 359.297 50.7224H368.922C369.281 50.7224 369.563 50.4248 369.563 50.0803V46.7761C369.563 46.4159 369.266 46.134 368.922 46.134H358.344C353.579 46.134 350.36 49.0781 350.36 53.3845C350.36 57.6284 353.579 60.5411 358.204 60.5411H360.75C364.313 60.5411 365.344 62.342 365.344 64.2212C365.344 66.21 364 68.0735 360.719 68.0735H351.126C350.767 68.0735 350.485 68.371 350.485 68.7156V72.0198C350.485 72.38 350.782 72.6618 351.126 72.6618H361.61C367.938 72.6618 371 68.8408 371 64.2682C370.984 59.7894 367.953 56.0937 361.704 56.0937Z" fill="black"/>
<path d="M168.119 46.1184H166.572H162.947H161.557C161.276 46.1184 161.041 46.2907 160.948 46.5569L152.026 71.8006C151.87 72.2234 152.182 72.6619 152.635 72.6619H156.745C157.026 72.6619 157.26 72.4896 157.354 72.2234L159.604 65.8655H171.478L173.728 72.2234C173.822 72.4896 174.056 72.6619 174.338 72.6619H178.447C178.9 72.6619 179.212 72.2234 179.056 71.8006L170.135 46.5569C170.041 46.2907 169.806 46.1184 169.525 46.1184H168.119ZM161.104 61.5904L164.838 51.0043H166.197L169.931 61.5904H161.104Z" fill="black"/>
<path d="M314.33 46.1184H312.784H309.159H307.768C307.487 46.1184 307.253 46.2907 307.159 46.5569L298.238 71.8006C298.081 72.2234 298.394 72.6619 298.847 72.6619H302.956C303.237 72.6619 303.472 72.4896 303.565 72.2234L305.815 65.8655H317.69L319.94 72.2234C320.033 72.4896 320.268 72.6619 320.549 72.6619H324.658C325.111 72.6619 325.424 72.2234 325.267 71.8006L316.346 46.5569C316.252 46.2907 316.018 46.1184 315.737 46.1184H314.33ZM307.331 61.5904L311.065 51.0043H312.424L316.159 61.5904H307.331Z" fill="black"/>
<path d="M98.7944 1.36241L120.325 72.286C120.465 72.7401 120.871 73.0377 121.34 73.0377H136.652C137.355 73.0377 137.871 72.3486 137.668 71.6753L116.137 0.751674C116.012 0.313198 115.59 0 115.137 0H99.8256C99.1069 0 98.5913 0.689034 98.7944 1.36241Z" fill="#2021D4"/>
<path d="M72.0615 59.1004H88.0763C88.4982 59.1004 88.8732 58.8499 89.045 58.4584L101.607 29.378C101.904 28.6733 101.404 27.8903 100.638 27.8903H84.6234C84.2015 27.8903 83.8265 28.1409 83.6547 28.5324L71.0928 57.6127C70.7803 58.3174 71.2959 59.1004 72.0615 59.1004Z" fill="#2021D4"/>
<path d="M190.837 17.8366C190.837 13.076 187.4 10.1319 181.853 10.1319H174.182C173.744 10.1319 173.4 10.4921 173.4 10.9149V24.1005H157.401C156.964 24.1005 156.62 24.4607 156.62 24.8835C156.62 25.3063 156.979 25.6665 157.401 25.6665H167.01C166.229 31.5703 161.526 35.6732 155.526 35.6732C148.558 35.6732 143.324 30.4271 143.324 23.4741C143.324 16.5368 148.48 11.3064 155.323 11.3064C160.276 11.3064 164.541 14.1565 166.432 18.7292C166.557 19.0267 166.838 19.2303 167.166 19.2303H167.244C167.51 19.2303 167.76 19.105 167.901 18.8701C168.041 18.6509 168.072 18.3847 167.979 18.1341C165.823 12.9194 160.963 9.6778 155.339 9.6778C147.667 9.6778 141.652 15.7382 141.652 23.4741C141.652 31.2101 147.761 37.2705 155.557 37.2705C162.37 37.2705 167.869 32.4003 168.682 25.6822H173.416V36.0177C173.416 36.4562 173.775 36.8007 174.197 36.8007H174.291C174.728 36.8007 175.072 36.4405 175.072 36.0177V25.6509H181.916C182.509 25.6509 183.04 25.6195 183.587 25.5569L188.462 36.3466C188.587 36.6284 188.868 36.8007 189.181 36.8007H189.259C189.525 36.8007 189.775 36.6597 189.915 36.4405C190.056 36.2213 190.087 35.9394 189.978 35.6888L185.212 25.2124C188.743 24.2258 190.837 21.4853 190.837 17.8366ZM189.15 17.8366C189.15 21.7516 186.415 24.1005 181.853 24.1005H175.041V11.7292H181.884C186.431 11.7292 189.15 14.0156 189.15 17.8366Z" fill="black"/>
<path d="M212.382 10.1317H212.335C211.898 10.1317 211.554 10.4918 211.554 10.9146V27.2949C211.554 32.5409 208.71 35.6572 203.945 35.6572C199.179 35.6572 196.336 32.5253 196.336 27.2949V10.9146C196.336 10.4762 195.977 10.1317 195.555 10.1317H195.461C195.023 10.1317 194.68 10.4918 194.68 10.9146V27.2009C194.68 33.4022 198.226 37.2702 203.945 37.2702C209.726 37.2702 213.179 33.5118 213.179 27.2009V10.9146C213.163 10.4918 212.804 10.1317 212.382 10.1317Z" fill="black"/>
<path d="M227.413 10.1317H219.945C219.507 10.1317 219.164 10.4918 219.164 10.9146V36.0174C219.164 36.4559 219.523 36.8004 219.945 36.8004H219.992C220.429 36.8004 220.773 36.4402 220.773 36.0174V25.8385H227.444C232.991 25.8385 236.428 22.8005 236.428 17.9146C236.428 13.107 232.975 10.1317 227.413 10.1317ZM234.741 17.9146C234.741 21.9392 232.085 24.2412 227.444 24.2412H220.773V11.729H227.476C232.022 11.729 234.741 14.031 234.741 17.9146Z" fill="black"/>
<path d="M262.708 13.6867C260.13 11.1028 256.599 9.6778 252.771 9.6778C244.99 9.6778 238.897 15.7382 238.897 23.4741C238.897 27.2325 240.319 30.709 242.881 33.2772C245.459 35.8454 248.974 37.2705 252.771 37.2705C260.693 37.2705 266.677 31.3354 266.677 23.4741C266.692 19.7158 265.27 16.2393 262.708 13.6867ZM264.989 23.4741C264.989 30.4271 259.739 35.6732 252.787 35.6732C245.85 35.6732 240.615 30.4271 240.615 23.4741C240.615 16.5368 245.85 11.3064 252.787 11.3064C259.739 11.3064 264.989 16.5368 264.989 23.4741Z" fill="black"/>
</svg>
