<svg width="300" height="74" viewBox="0 0 300 74" fill="none" xmlns="http://www.w3.org/2000/svg">
<path d="M124.68 62.7492C124.68 66.0064 122.883 68.2301 119.696 68.2301C116.524 68.2301 114.68 66.0064 114.68 62.7492V46.7761C114.68 46.4159 114.384 46.134 114.04 46.134H109.899C109.54 46.134 109.259 46.4316 109.259 46.7761V62.436C109.259 69.0914 113.352 73.1943 119.711 73.1943C126.102 73.1943 130.164 69.0914 130.164 62.436V46.7761C130.164 46.4159 129.867 46.134 129.523 46.134H125.336C124.977 46.134 124.696 46.4316 124.696 46.7761V62.7492H124.68Z" fill="black"/>
<path d="M133.492 50.6441H138.429V72.0041C138.429 72.3643 138.726 72.6462 139.07 72.6462H143.257C143.617 72.6462 143.898 72.3487 143.898 72.0041V50.6441H148.835C149.195 50.6441 149.476 50.3465 149.476 50.002V46.7761C149.476 46.4159 149.179 46.134 148.835 46.134H133.492C133.133 46.134 132.852 46.4316 132.852 46.7761V50.002C132.852 50.3622 133.148 50.6441 133.492 50.6441Z" fill="black"/>
<path d="M164.553 45.6331C156.428 45.6331 150.538 51.5368 150.538 59.3668C150.538 67.228 156.444 73.2101 164.553 73.2101C172.709 73.2101 178.568 67.228 178.568 59.3668C178.568 51.5368 172.709 45.6331 164.553 45.6331ZM164.553 68.0267C159.569 68.0267 156.085 64.3466 156.085 59.4294C156.085 54.4339 159.585 50.7538 164.553 50.7538C169.537 50.7538 172.99 54.4339 172.99 59.4294C172.99 64.3466 169.522 68.0267 164.553 68.0267Z" fill="black"/>
<path d="M196.224 59.1632V61.8567C196.224 62.2169 196.52 62.4987 196.864 62.4987H203.676C202.551 65.9283 199.473 68.3086 195.411 68.3086C190.318 68.3086 186.833 64.4875 186.833 59.4294C186.833 54.293 190.286 50.5816 195.239 50.5816C198.614 50.5816 201.348 52.4608 202.567 55.076C202.676 55.2952 202.895 55.4361 203.145 55.4361H207.661C208.098 55.4361 208.426 54.9977 208.27 54.5748C206.301 49.0312 201.145 45.6331 195.13 45.6331C187.083 45.6331 181.287 51.5838 181.287 59.3981C181.287 67.2124 187.146 73.1944 195.302 73.1944C202.926 73.1944 208.973 67.322 208.973 59.68C208.973 59.586 208.973 59.3511 208.957 59.1319C208.942 58.7874 208.661 58.5211 208.317 58.5211H196.864C196.505 58.5055 196.224 58.803 196.224 59.1632Z" fill="black"/>
<path d="M217.629 46.1184H213.442C213.083 46.1184 212.801 46.4159 212.801 46.7605V72.6619H224.16C224.519 72.6619 224.801 72.3643 224.801 72.0198V68.7939C224.801 68.4337 224.504 68.1518 224.16 68.1518H218.27V46.7761C218.27 46.4159 217.989 46.1184 217.629 46.1184Z" fill="black"/>
<path d="M268.158 56.0937H265.752C263.627 56.0937 262.611 54.8879 262.611 53.4785C262.611 51.9282 263.642 50.7224 265.752 50.7224H275.376C275.735 50.7224 276.017 50.4248 276.017 50.0803V46.7761C276.017 46.4159 275.72 46.134 275.376 46.134H264.798C260.033 46.134 256.814 49.0781 256.814 53.3845C256.814 57.6284 260.033 60.5411 264.658 60.5411H267.205C270.767 60.5411 271.798 62.342 271.798 64.2212C271.798 66.21 270.454 68.0735 267.173 68.0735H257.58C257.221 68.0735 256.939 68.371 256.939 68.7156V72.0198C256.939 72.38 257.236 72.6618 257.58 72.6618H268.064C274.392 72.6618 277.454 68.8408 277.454 64.2682C277.438 59.7894 274.407 56.0937 268.158 56.0937Z" fill="black"/>
<path d="M290.704 56.0937H288.297C286.173 56.0937 285.157 54.8879 285.157 53.4785C285.157 51.9282 286.188 50.7224 288.297 50.7224H297.922C298.281 50.7224 298.563 50.4248 298.563 50.0803V46.7761C298.563 46.4159 298.266 46.134 297.922 46.134H287.344C282.579 46.134 279.36 49.0781 279.36 53.3845C279.36 57.6284 282.579 60.5411 287.204 60.5411H289.75C293.313 60.5411 294.344 62.342 294.344 64.2212C294.344 66.21 293 68.0735 289.719 68.0735H280.126C279.767 68.0735 279.485 68.371 279.485 68.7156V72.0198C279.485 72.38 279.782 72.6618 280.126 72.6618H290.61C296.938 72.6618 300 68.8408 300 64.2682C299.984 59.7894 296.953 56.0937 290.704 56.0937Z" fill="black"/>
<path d="M97.1191 46.1184H95.5723H91.9474H90.5569C90.2756 46.1184 90.0413 46.2907 89.9475 46.5569L81.0261 71.8006C80.8698 72.2234 81.1823 72.6619 81.6354 72.6619H85.7446C86.0258 72.6619 86.2602 72.4896 86.354 72.2234L88.6038 65.8655H100.478L102.728 72.2234C102.822 72.4896 103.056 72.6619 103.338 72.6619H107.447C107.9 72.6619 108.212 72.2234 108.056 71.8006L99.1346 46.5569C99.0408 46.2907 98.8065 46.1184 98.5252 46.1184H97.1191ZM90.1038 61.5904L93.838 51.0043H95.1973L98.9315 61.5904H90.1038Z" fill="black"/>
<path d="M243.33 46.1184H241.784H238.159H236.768C236.487 46.1184 236.253 46.2907 236.159 46.5569L227.238 71.8006C227.081 72.2234 227.394 72.6619 227.847 72.6619H231.956C232.237 72.6619 232.472 72.4896 232.565 72.2234L234.815 65.8655H246.69L248.94 72.2234C249.033 72.4896 249.268 72.6619 249.549 72.6619H253.658C254.111 72.6619 254.424 72.2234 254.267 71.8006L245.346 46.5569C245.252 46.2907 245.018 46.1184 244.737 46.1184H243.33ZM236.331 61.5904L240.065 51.0043H241.424L245.159 61.5904H236.331Z" fill="black"/>
<path d="M27.7944 1.36241L49.3246 72.286C49.4652 72.7401 49.8714 73.0377 50.3402 73.0377H65.6519C66.355 73.0377 66.8706 72.3486 66.6675 71.6753L45.1373 0.751674C45.0123 0.313198 44.5904 0 44.1373 0H28.8256C28.1069 0 27.5913 0.689034 27.7944 1.36241Z" fill="#2021D4"/>
<path d="M1.06147 59.1004H17.0763C17.4982 59.1004 17.8732 58.8499 18.045 58.4584L30.6069 29.378C30.9038 28.6733 30.4038 27.8903 29.6382 27.8903H13.6234C13.2015 27.8903 12.8265 28.1409 12.6547 28.5324L0.0927657 57.6127C-0.219719 58.3174 0.295881 59.1004 1.06147 59.1004Z" fill="#2021D4"/>
<path d="M119.837 17.8366C119.837 13.076 116.4 10.1319 110.853 10.1319H103.182C102.744 10.1319 102.4 10.4921 102.4 10.9149V24.1005H86.4011C85.9636 24.1005 85.6199 24.4607 85.6199 24.8835C85.6199 25.3063 85.9792 25.6665 86.4011 25.6665H96.01C95.2288 31.5703 90.5259 35.6732 84.5262 35.6732C77.5578 35.6732 72.3236 30.4271 72.3236 23.4741C72.3236 16.5368 77.4797 11.3064 84.3231 11.3064C89.276 11.3064 93.5414 14.1565 95.4319 18.7292C95.5569 19.0267 95.8381 19.2303 96.1662 19.2303H96.2444C96.51 19.2303 96.76 19.105 96.9006 18.8701C97.0412 18.6509 97.0725 18.3847 96.9787 18.1341C94.8226 12.9194 89.9634 9.6778 84.3387 9.6778C76.6672 9.6778 70.6519 15.7382 70.6519 23.4741C70.6519 31.2101 76.7609 37.2705 84.5574 37.2705C91.3696 37.2705 96.8693 32.4003 97.6818 25.6822H102.416V36.0177C102.416 36.4562 102.775 36.8007 103.197 36.8007H103.291C103.728 36.8007 104.072 36.4405 104.072 36.0177V25.6509H110.916C111.509 25.6509 112.04 25.6195 112.587 25.5569L117.462 36.3466C117.587 36.6284 117.868 36.8007 118.181 36.8007H118.259C118.525 36.8007 118.775 36.6597 118.915 36.4405C119.056 36.2213 119.087 35.9394 118.978 35.6888L114.212 25.2124C117.743 24.2258 119.837 21.4853 119.837 17.8366ZM118.15 17.8366C118.15 21.7516 115.415 24.1005 110.853 24.1005H104.041V11.7292H110.884C115.431 11.7292 118.15 14.0156 118.15 17.8366Z" fill="black"/>
<path d="M141.382 10.1317H141.335C140.898 10.1317 140.554 10.4918 140.554 10.9146V27.2949C140.554 32.5409 137.71 35.6572 132.945 35.6572C128.179 35.6572 125.336 32.5253 125.336 27.2949V10.9146C125.336 10.4762 124.977 10.1317 124.555 10.1317H124.461C124.023 10.1317 123.68 10.4918 123.68 10.9146V27.2009C123.68 33.4022 127.226 37.2702 132.945 37.2702C138.726 37.2702 142.179 33.5118 142.179 27.2009V10.9146C142.163 10.4918 141.804 10.1317 141.382 10.1317Z" fill="black"/>
<path d="M156.413 10.1317H148.945C148.507 10.1317 148.164 10.4918 148.164 10.9146V36.0174C148.164 36.4559 148.523 36.8004 148.945 36.8004H148.992C149.429 36.8004 149.773 36.4402 149.773 36.0174V25.8385H156.444C161.991 25.8385 165.428 22.8005 165.428 17.9146C165.428 13.107 161.975 10.1317 156.413 10.1317ZM163.741 17.9146C163.741 21.9392 161.085 24.2412 156.444 24.2412H149.773V11.729H156.476C161.022 11.729 163.741 14.031 163.741 17.9146Z" fill="black"/>
<path d="M191.708 13.6867C189.13 11.1028 185.599 9.6778 181.771 9.6778C173.99 9.6778 167.897 15.7382 167.897 23.4741C167.897 27.2325 169.319 30.709 171.881 33.2772C174.459 35.8454 177.974 37.2705 181.771 37.2705C189.693 37.2705 195.677 31.3354 195.677 23.4741C195.692 19.7158 194.27 16.2393 191.708 13.6867ZM193.989 23.4741C193.989 30.4271 188.739 35.6732 181.787 35.6732C174.85 35.6732 169.615 30.4271 169.615 23.4741C169.615 16.5368 174.85 11.3064 181.787 11.3064C188.739 11.3064 193.989 16.5368 193.989 23.4741Z" fill="black"/>
</svg>
